<?xml version="1.0" encoding="UTF-8" ?>
<!DOCTYPE svg PUBLIC "-//W3C//DTD SVG 1.1//EN" "http://www.w3.org/Graphics/SVG/1.1/DTD/svg11.dtd">
<svg width="512pt" height="512pt" viewBox="0 0 512 512" version="1.1" xmlns="http://www.w3.org/2000/svg">
<g id="#ffca28ff">
<path fill="#ffca28" opacity="1.00" d=" M 64.01 64.01 C 192.00 64.00 320.00 63.99 447.99 64.01 C 448.01 192.00 448.00 320.00 447.99 447.99 C 320.00 448.01 192.00 448.00 64.01 447.99 C 64.00 320.00 63.99 192.00 64.01 64.01 M 325.28 246.24 C 313.93 252.93 305.89 264.85 303.98 277.90 C 301.86 292.56 305.00 308.64 315.17 319.84 C 326.09 332.13 341.80 338.21 356.56 344.50 C 363.85 347.85 371.73 350.70 377.54 356.45 C 383.98 362.83 383.57 374.71 376.23 380.25 C 367.89 386.71 356.29 386.92 346.42 384.50 C 335.57 381.81 327.46 373.27 321.85 364.00 C 312.04 369.64 302.23 375.28 292.50 381.05 C 298.06 392.02 306.76 401.40 317.38 407.63 C 332.79 416.72 351.37 419.20 368.96 417.29 C 383.17 415.69 397.63 410.17 407.14 399.10 C 415.29 389.84 418.65 377.16 418.07 364.99 C 417.83 353.87 414.29 342.58 406.81 334.18 C 397.23 323.32 383.88 316.89 370.85 311.13 C 362.08 307.09 352.56 304.19 344.87 298.17 C 338.05 292.95 336.95 281.96 342.42 275.41 C 347.49 269.36 356.42 268.62 363.61 270.58 C 370.86 272.54 375.91 278.72 379.39 285.04 C 388.94 279.29 398.00 272.75 407.38 266.71 C 400.56 253.77 388.40 243.46 373.98 240.23 C 357.79 236.62 339.78 237.57 325.28 246.24 M 236.85 240.21 C 236.72 281.49 236.87 322.76 236.77 364.04 C 236.61 370.92 235.41 379.13 229.05 383.10 C 223.46 386.21 216.45 386.42 210.42 384.54 C 202.49 381.78 198.40 373.90 194.26 367.19 C 184.48 373.11 174.62 378.90 164.91 384.92 C 172.19 401.00 187.21 413.40 204.69 416.51 C 222.19 419.67 242.08 417.92 256.27 406.28 C 268.34 396.33 272.96 380.12 273.03 364.99 C 273.05 323.40 273.13 281.80 272.99 240.20 C 260.94 240.21 248.89 240.18 236.85 240.21 Z" />
</g>
</svg>
